<?xml version="1.0" encoding="utf-8"?>
<svg xmlns="http://www.w3.org/2000/svg" height="1024" width="1024" viewBox="0 0 1024 1024">
  <g>
    <path id="path1" transform="rotate(0,512,512) translate(46.2559814453125,0) scale(32,32)  " fill="#FFFFFF" d="M18.740991,29.009003C19.538996,29.009003 20.236994,29.707001 20.236994,30.505005 20.236994,31.302002 19.538996,32 18.740991,32 17.943994,32 17.346002,31.302002 17.346002,30.505005 17.346002,29.606995 17.943994,29.009003 18.740991,29.009003z M13.257992,29.009003C14.055996,29.009003 14.753994,29.707001 14.753994,30.505005 14.753994,31.302002 14.156002,32 13.257992,32 12.360989,32 11.762998,31.302002 11.762998,30.505005 11.762998,29.606995 12.460995,29.009003 13.257992,29.009003z M21.133997,24.722992C21.930994,24.722992 22.528986,25.42099 22.528986,26.218018 22.528986,27.015991 21.930994,27.713013 21.133997,27.713013 20.335993,27.713013 19.637995,27.015991 19.637995,26.218018 19.637995,25.321014 20.335993,24.722992 21.133997,24.722992z M15.850001,24.722992C16.648006,24.722992 17.245996,25.42099 17.245996,26.218018 17.245996,27.015991 16.648006,27.713013 15.850001,27.713013 15.053005,27.713013 14.355007,27.015991 14.355007,26.218018 14.455013,25.321014 15.053005,24.722992 15.850001,24.722992z M10.268002,24.722992C11.064999,24.722992 11.662991,25.42099 11.662991,26.218018 11.662991,27.015991 11.064999,27.713013 10.268002,27.713013 9.4699983,27.713013 8.7720002,27.015991 8.7720002,26.218018 8.8720063,25.321014 9.4699983,24.722992 10.268002,24.722992z M26.317985,11.664001L27.514,12.360992C27.912987,12.660004 28.111992,13.158997 27.813011,13.657013 27.614006,14.056 27.214989,14.156006 26.816002,14.056 26.516991,13.558014 26.21801,13.05899 25.818993,12.660004 26.019005,12.261993 26.21801,11.963013 26.317985,11.664001z M26.816002,8.1740112L28.211998,8.1740112C28.709984,8.1740112 29.109001,8.572998 29.109001,9.17099 29.109001,9.6700134 28.709984,10.069 28.111992,10.069L26.715996,10.069C26.715996,9.7690125 26.816002,9.4700012 26.816002,9.17099 26.916008,8.8720093 26.816002,8.572998 26.816002,8.1740112z M13.158993,6.480011C16.149013,6.480011 18.641992,8.7730103 19.538996,11.863007 20.037012,11.763 20.536005,11.664001 21.033991,11.664001 24.024986,11.664001 26.516991,14.156006 26.516991,17.145996 26.516991,19.140015 25.520012,20.834991 23.925011,21.731995 23.326988,22.231018 22.528986,22.529999 21.632013,22.529999L20.934015,22.529999 20.236994,22.529999 6.1809982,22.529999 5.4830002,22.529999C2.4920038,22.529999 9.7558768E-08,20.136993 0,17.246002 9.7558768E-08,14.355011 2.4920038,11.963013 5.4830002,11.963013 5.8810104,11.963013 6.2799968,11.963013 6.6790141,12.062012 7.4760112,8.8720093 10.06799,6.480011 13.158993,6.480011z M27.314995,4.2870178C27.614006,4.2870178 27.912987,4.4859924 28.111992,4.7850037 28.310997,5.2829895 28.211998,5.7820129 27.713005,6.0809937L26.416984,6.7789917C26.21801,6.1809998,25.918999,5.6820068,25.520012,5.1839905L26.916008,4.3860168C27.015007,4.2870178,27.214989,4.2870178,27.314995,4.2870178z M13.357998,3.7879944C13.557003,3.7879944,13.657009,3.7879944,13.856991,3.8880005L15.15301,4.6849976C14.952999,4.8850098 14.753994,5.1839905 14.554012,5.3829956 14.055996,5.2829895 13.657009,5.2829895 13.158993,5.2829895L12.66,5.2829895C12.360989,4.9840088 12.360989,4.5859985 12.561001,4.1870117 12.760006,3.9880066 12.959011,3.8880005 13.357998,3.7879944z M20.136988,3.3890076L20.335993,3.3890076C23.426994,3.4890137 25.918999,6.0809937 25.818993,9.17099 25.818993,10.167999 25.520012,11.165009 25.021995,11.963013 23.925011,11.065002 22.528986,10.567017 20.934015,10.567017L20.236994,10.567017C19.339014,8.2740173 17.645014,6.57901 15.55099,5.7820129 16.548,4.2870178 18.243006,3.3890076 20.136988,3.3890076z M24.523003,1.29599C24.722984,1.29599 24.921989,1.29599 25.021995,1.3959961 25.420006,1.6950073 25.619987,2.2929993 25.321007,2.6920166L24.523003,3.9880066C24.024986,3.5889893,23.525993,3.2900085,22.928003,2.9909973L23.726005,1.6950073C23.925011,1.3959961,24.223991,1.29599,24.523003,1.29599z M16.447994,0.89700317C16.748011,0.89700317,17.046991,1.0970154,17.245996,1.3959961L17.943994,2.7910156C17.346002,2.9909973,16.84701,3.2900085,16.348995,3.6880188L15.650996,2.3930054C15.451991,1.8940125 15.55099,1.3959961 16.050014,1.0970154 16.149013,0.99700928 16.248989,0.89700317 16.447994,0.89700317z M20.435999,0C20.934015,0,21.333002,0.39901733,21.333002,0.99700928L21.333002,2.4920044C21.033991,2.3930054,20.73501,2.3930054,20.435999,2.3930054L19.538996,2.3930054 19.538996,0.89700317C19.538996,0.39901733,19.938013,0,20.435999,0z" />
  </g>
</svg>

